<?xml version="1.0" encoding="iso-8859-1"?>
<!-- Generator: Adobe Illustrator 19.0.0, SVG Export Plug-In . SVG Version: 6.00 Build 0)  -->
<svg version="1.1" id="Layer_1" xmlns="http://www.w3.org/2000/svg" xmlns:xlink="http://www.w3.org/1999/xlink" x="0px" y="0px"
	 viewBox="0 0 511.999 511.999" style="enable-background:new 0 0 511.999 511.999;" xml:space="preserve">
<g>
	<g>
		<path d="M256,102.493c-83.128,0-150.757,67.63-150.757,150.757S172.872,404.007,256,404.007s150.757-67.629,150.757-150.756
			S339.128,102.493,256,102.493z M256,389.245c-74.989,0-135.996-61.007-135.996-135.995c0-74.989,61.007-135.996,135.996-135.996
			c74.988,0,135.996,61.007,135.996,135.996C391.995,328.238,330.988,389.245,256,389.245z"/>
	</g>
</g>
<g>
	<g>
		<path d="M258.142,127.879l-0.248,14.76c31.3,0.526,61.072,14.455,81.681,38.21l11.15-9.674
			C327.373,144.258,293.628,128.478,258.142,127.879z"/>
	</g>
</g>
<g>
	<g>
		<path d="M364.486,190.425l-12.763,7.417c2.186,3.761,4.168,7.69,5.891,11.677l13.551-5.855
			C369.212,199.142,366.964,194.688,364.486,190.425z"/>
	</g>
</g>
<g>
	<g>
		<path d="M272.336,362.673c-5.368,0.798-10.864,1.203-16.336,1.203c-21.566,0-42.479-6.236-60.478-18.034l-8.094,12.346
			c20.41,13.379,44.121,20.45,68.57,20.45c6.195,0,12.422-0.459,18.506-1.362L272.336,362.673z"/>
	</g>
</g>
<g>
	<g>
		<path d="M168.453,320.804l-11.676,9.031c3.2,4.137,6.691,8.112,10.376,11.815l10.464-10.412
			C174.363,327.968,171.28,324.457,168.453,320.804z"/>
	</g>
</g>
<g>
	<g>
		<path d="M314.715,0h-117.43v43.325h29.61c-4.405,5.986-7.015,13.372-7.015,21.359c0,19.916,16.203,36.118,36.119,36.118
			s36.119-16.203,36.119-36.118c0-7.985-2.61-15.371-7.015-21.358h29.61V0z M256,86.04c-11.776,0-21.358-9.581-21.358-21.357
			c0-11.777,9.581-21.358,21.358-21.358s21.358,9.581,21.358,21.358C277.358,76.459,267.777,86.04,256,86.04z M299.953,28.563
			h-87.906V14.762h87.906V28.563z"/>
	</g>
</g>
<g>
	<g>
		<path d="M285.105,468.674c4.405-5.986,7.015-13.371,7.015-21.358c0-19.916-16.204-36.119-36.119-36.119
			s-36.119,16.204-36.119,36.119c0,7.985,2.61,15.371,7.015,21.358h-29.61v43.325h117.43v-43.325H285.105z M256,425.959
			c11.777,0,21.358,9.581,21.358,21.358s-9.581,21.358-21.358,21.358c-11.776,0-21.358-9.581-21.358-21.358
			S244.224,425.959,256,425.959z M299.953,497.237h-87.906v-13.801h87.906V497.237z"/>
	</g>
</g>
<g>
	<g>
		<path d="M468.674,197.285v29.61c-5.986-4.405-13.372-7.015-21.358-7.015c-19.916,0-36.118,16.204-36.118,36.119
			c0,19.916,16.203,36.118,36.118,36.118c7.986,0,15.371-2.61,21.358-7.015v29.61h43.325V197.285H468.674z M447.316,277.357
			c-11.776,0-21.357-9.58-21.357-21.357c0-11.777,9.58-21.358,21.357-21.358c11.777,0,21.358,9.581,21.358,21.358
			C468.674,267.776,459.093,277.357,447.316,277.357z M497.238,299.953h-13.801v-87.906h13.801V299.953z"/>
	</g>
</g>
<g>
	<g>
		<path d="M64.684,219.882c-7.985,0-15.371,2.61-21.358,7.015v-29.61H0v117.43h43.326v-29.611
			c5.986,4.405,13.371,7.015,21.358,7.015c19.916,0,36.119-16.203,36.119-36.118S84.6,219.882,64.684,219.882z M28.564,299.953
			H14.762v-87.906h13.802V299.953z M64.684,277.357c-11.776,0-21.358-9.58-21.358-21.357c0-11.777,9.581-21.358,21.358-21.358
			c11.776,0,21.358,9.581,21.358,21.358C86.041,267.776,76.461,277.357,64.684,277.357z"/>
	</g>
</g>
<g>
	<g>
		<path d="M395.502,33.461l-30.637,30.638l20.938,20.937c-7.347,1.118-14.415,4.495-20.062,10.141
			c-14.083,14.083-14.083,36.998,0.001,51.081c7.04,7.04,16.29,10.561,25.54,10.561c9.249,0,18.499-3.52,25.539-10.561l0.001-0.001
			c5.646-5.647,9.023-12.714,10.141-20.062l20.937,20.937l30.636-30.636L395.502,33.461z M406.384,135.818
			c-8.328,8.327-21.879,8.329-30.204,0c-8.329-8.325-8.329-21.875-0.001-30.202c4.163-4.164,9.632-6.246,15.102-6.246
			c5.466,0,10.934,2.081,15.097,6.24l0.01,0.009C414.71,113.947,414.709,127.494,406.384,135.818z M416.85,95.206
			c-0.01-0.009-0.018-0.02-0.028-0.029c-0.01-0.01-0.02-0.019-0.029-0.028l-31.052-31.051l9.761-9.761l62.158,62.159l-9.76,9.76
			L416.85,95.206z"/>
	</g>
</g>
<g>
	<g>
		<path d="M146.26,416.821c14.081-14.083,14.081-36.997-0.001-51.08c-6.822-6.822-15.893-10.578-25.54-10.578
			s-18.718,3.756-25.54,10.578v0.001c-5.647,5.646-9.023,12.714-10.141,20.061l-20.938-20.938l-30.636,30.636l83.036,83.036
			l30.636-30.636l-20.937-20.937C133.545,425.845,140.613,422.469,146.26,416.821z M105.617,376.179L105.617,376.179
			c8.327-8.327,21.875-8.327,30.204,0c8.327,8.328,8.327,21.878,0,30.205c-8.324,8.324-21.863,8.326-30.192,0.012l-0.024-0.024
			C97.29,398.043,97.294,384.502,105.617,376.179z M126.258,447.901l-9.76,9.76l-62.159-62.159l9.76-9.76l31.056,31.057
			c0.008,0.008,0.015,0.017,0.023,0.024c0.008,0.008,0.017,0.015,0.025,0.023L126.258,447.901z"/>
	</g>
</g>
<g>
	<g>
		<path d="M447.9,364.864l-20.937,20.938c-1.118-7.347-4.495-14.416-10.141-20.062c-14.083-14.081-36.997-14.082-51.081,0
			c-14.082,14.084-14.082,36.998,0,51.081h0.001c5.646,5.646,12.714,9.022,20.061,10.141L364.864,447.9l30.637,30.636l83.035-83.036
			L447.9,364.864z M376.179,406.383L376.179,406.383c-8.327-8.327-8.327-21.876,0.001-30.203c8.326-8.327,21.875-8.328,30.203-0.001
			c8.324,8.324,8.326,21.866,0.01,30.194l-0.019,0.02C398.046,414.708,384.505,414.707,376.179,406.383z M385.741,447.901
			l31.061-31.062c0.007-0.006,0.013-0.012,0.02-0.019c0.007-0.006,0.012-0.013,0.019-0.02l31.06-31.061l9.76,9.76l-62.158,62.161
			L385.741,447.901z"/>
	</g>
</g>
<g>
	<g>
		<path d="M146.258,95.179L146.258,95.179c-5.508-5.508-12.482-9.015-20.042-10.163l20.917-20.917l-30.636-30.637l-83.036,83.036
			l30.636,30.636l20.939-20.938c1.118,7.348,4.495,14.415,10.141,20.063c7.041,7.04,16.291,10.561,25.54,10.561
			c9.249,0,18.499-3.52,25.54-10.562C160.34,132.175,160.34,109.261,146.258,95.179z M64.098,126.258l-9.76-9.76l62.159-62.159
			l9.76,9.761L64.098,126.258z M135.82,135.819c-8.328,8.328-21.876,8.327-30.204,0.001c-8.327-8.328-8.327-21.878,0-30.204
			c4.164-4.164,9.633-6.246,15.102-6.246c5.469,0.001,10.938,2.082,15.101,6.245C144.147,113.943,144.147,127.494,135.82,135.819z"
			/>
	</g>
</g>
<g>
	<g>
		<rect x="147.904" y="247.882" width="14.762" height="16.238"/>
	</g>
</g>
<g>
	<g>
		<rect x="198.262" y="247.882" width="14.762" height="16.238"/>
	</g>
</g>
<g>
	<g>
		<rect x="248.62" y="247.882" width="14.762" height="16.238"/>
	</g>
</g>
<g>
	<g>
		<rect x="298.978" y="247.882" width="14.762" height="16.238"/>
	</g>
</g>
<g>
	<g>
		<rect x="349.336" y="247.882" width="14.762" height="16.238"/>
	</g>
</g>
<g>
</g>
<g>
</g>
<g>
</g>
<g>
</g>
<g>
</g>
<g>
</g>
<g>
</g>
<g>
</g>
<g>
</g>
<g>
</g>
<g>
</g>
<g>
</g>
<g>
</g>
<g>
</g>
<g>
</g>
</svg>
