<?xml version="1.0" encoding="iso-8859-1"?>
<!-- Generator: Adobe Illustrator 16.0.0, SVG Export Plug-In . SVG Version: 6.00 Build 0)  -->
<!DOCTYPE svg PUBLIC "-//W3C//DTD SVG 1.1//EN" "http://www.w3.org/Graphics/SVG/1.1/DTD/svg11.dtd">
<svg version="1.1" id="Capa_1" xmlns="http://www.w3.org/2000/svg" xmlns:xlink="http://www.w3.org/1999/xlink" x="0px" y="0px"
	 width="457.115px" height="457.115px" viewBox="0 0 457.115 457.115" style="enable-background:new 0 0 457.115 457.115;"
	 xml:space="preserve">
<g>
	<g id="Layer_3_7_">
		<g>
			<path d="M115.425,101.786c-8.757,0.021-15.815,7.166-15.756,15.949c0.058,8.635,7.015,15.573,15.665,15.626
				c8.85,0.053,15.904-6.91,15.921-15.718C131.273,108.847,124.205,101.764,115.425,101.786z"/>
			<path d="M295.166,250.487c19.246-2.933,36.184-10.774,49.617-22.881c2.84-2.175,10.092-10.696,10.092-10.696
				c5.996-7.896-1.064-14.029-1.139-14.093c-2.986-2.53-9.129-4.217-14.096,1.189l-1.713,2.003l0,0
				c-25.756,30.413-68.609,30.706-99.652,17.506c-26.515-11.274-53.462-36.942-49.573-75.17c0.559-5.494-3.442-10.401-8.937-10.961
				c-5.491-0.561-10.402,3.442-10.961,8.937c-4.174,41.025,19.447,77.656,61.645,95.601c15.219,6.471,31.755,9.819,47.898,9.819
				C284.027,251.741,289.658,251.326,295.166,250.487z"/>
			<path d="M455.814,232.957c-1.986-3.502-5.875-5.476-9.875-4.999c-0.23,0.027-20.941,2.289-45.943-8.559
				c10.289-18.975,17.586-37.316,22.58-52.212c1.041-3.103,0.475-6.518-1.479-9.144c-1.953-2.627-5.094-4.131-8.361-4.029
				c-0.061,0.002-0.221,0.005-0.479,0.005c-3.783,0-38.371-0.831-87.146-29.651c-21.193-12.524-45.616-25.969-67.715-31.981
				c-4.182-5.912-8.223-11.825-12.043-17.619c-16.104-24.426-50.131-49.071-89.849-49.071c-28.118,0-68.258,12.428-101.054,71.045
				c-6.706,2.864-22.323,9.525-29.805,12.652c-3.722,1.555-6.145,5.193-6.145,9.227v2.2c0,3.193,1.524,6.194,4.104,8.077
				c1.945,1.42,3.893,2.838,5.84,4.255c2.096,1.525,4.216,3.069,6.344,4.624c-1.412,0.896-2.815,1.786-4.206,2.67
				c-2.293,1.456-4.585,2.912-6.881,4.364c-3.411,2.157-5.191,6.153-4.513,10.132l0.363,2.145c0.53,3.155,2.538,5.868,5.402,7.295
				c2.234,1.113,4.47,2.224,6.706,3.333c6.183,3.069,12.548,6.229,18.792,9.428c5.079,9.912,22.449,42.126,49.432,74.738
				c18.829,22.758,38.448,40.944,58.314,54.059c1.335,0.881,2.672,1.726,4.009,2.562c-2.052-0.308-4.099-0.606-6.167-0.929
				c-79.302-12.381-142.305-32.801-142.932-33.006c-5.248-1.715-10.895,1.15-12.611,6.398c-1.715,5.25,1.149,10.896,6.398,12.611
				c0.51,0.167,41.434,13.443,98.941,25.229c-26.07,30.346-58.958,41.574-59.561,41.775c-5.242,1.717-8.105,7.355-6.396,12.602
				c1.375,4.223,5.293,6.906,9.506,6.906c1.026,0,2.071-0.16,3.1-0.496c1.888-0.615,44.831-14.988,75.496-56.496
				c8.009,1.463,16.248,2.871,24.67,4.188c41.436,6.481,80.162,9.751,115.384,9.751c5.255,0,10.438-0.072,15.535-0.219
				c7.947-0.229,15.682-0.653,23.242-1.238c-8.182,6.995-17.117,15.281-25.506,24.4l-1.43,1.572
				c-16.045,17.762-29.766,38.504-31.773,58.885c-0.543,5.496,3.474,10.391,8.97,10.934c0.334,0.033,0.665,0.049,0.993,0.049
				c5.08,0,9.431-3.857,9.939-9.02c1.361-13.809,10.795-29.027,22.99-43.246c6.807,3.213,18.299,11.004,22.709,28.098
				c1.164,4.51,5.225,7.504,9.676,7.504c0.828,0,1.668-0.105,2.506-0.32c5.348-1.381,8.564-6.834,7.184-12.182
				c-5.297-20.527-17.777-31.969-27.918-38.105c14.854-14.484,30.711-26.696,40.537-33.433
				c23.588-4.209,44.766-10.502,63.312-18.858c5.033-2.271,7.275-8.19,5.008-13.227c-2.27-5.035-8.191-7.277-13.227-5.008
				c-26.646,12.01-59.684,19.402-98.113,22.141c18.871-8.505,36.299-20.451,52.182-35.795c5.084,1.07,10.574,1.613,16.34,1.613
				c10.869,0,22.684-1.891,34.447-5.628c20.822-6.615,38.826-18.263,49.391-31.953C457.492,240.812,457.801,236.46,455.814,232.957z
				 M346.059,260.725l-2.479,2.523c-26.133,26.131-61.334,45.967-108.4,48.02c-96.547-0.211-167.543-144.422-168.249-145.876
				c-0.94-1.945-2.485-3.533-4.404-4.526c-4.938-2.558-9.945-5.077-14.898-7.547c3.377-2.137,6.785-4.281,10.163-6.374
				c2.81-1.74,4.578-4.757,4.724-8.059c0.146-3.302-1.348-6.462-3.993-8.444c-3.892-2.917-7.842-5.822-11.758-8.684
				c9.276-3.942,18.571-7.917,18.718-7.98c2.078-0.888,3.793-2.453,4.867-4.441c22.49-41.633,51.936-63.639,85.154-63.639
				c32.103,0,60.423,20.776,73.151,40.08c4.599,6.975,9.506,14.112,14.585,21.214c1.408,1.969,3.482,3.36,5.839,3.916
				c20.56,4.847,45.995,18.941,65.858,30.68c37.508,22.164,67.672,29.221,84.324,31.438c-5.225,13.786-12.092,29.129-20.986,44.438
				l-1.463,2.49C368.406,234.062,358.254,248.068,346.059,260.725z M371.777,261.629c6.668-8.09,12.652-16.461,18.016-24.876
				c11.824,5.397,22.988,8.31,32.334,9.834C407.393,255.736,388.281,261.508,371.777,261.629z"/>
		</g>
	</g>
</g>
<g>
</g>
<g>
</g>
<g>
</g>
<g>
</g>
<g>
</g>
<g>
</g>
<g>
</g>
<g>
</g>
<g>
</g>
<g>
</g>
<g>
</g>
<g>
</g>
<g>
</g>
<g>
</g>
<g>
</g>
</svg>
